<svg width="20" height="20" viewBox="0 0 20 20" fill="none" xmlns="http://www.w3.org/2000/svg">
<g clip-path="url(#clip0)">
<path d="M6.37989 15.2887C5.22672 15.2887 4.29193 16.2235 4.29193 17.3766C4.29193 18.5298 5.22676 19.4646 6.37989 19.4646C7.53307 19.4646 8.46786 18.5298 8.46786 17.3766C8.4679 16.2235 7.53307 15.2887 6.37989 15.2887ZM6.37989 18.5367C5.73925 18.5367 5.21992 18.0173 5.21992 17.3767C5.21992 16.736 5.73925 16.2167 6.37989 16.2167C7.02054 16.2167 7.53986 16.736 7.53986 17.3767C7.53991 18.0173 7.02054 18.5367 6.37989 18.5367Z" fill="#111111"/>
<path d="M15.1959 15.2887C14.0427 15.2887 13.1079 16.2235 13.1079 17.3766C13.1079 18.5298 14.0427 19.4646 15.1959 19.4646C16.349 19.4646 17.2838 18.5298 17.2838 17.3766C17.2838 16.2235 16.3491 15.2887 15.1959 15.2887ZM15.1959 18.5367C14.5552 18.5367 14.0359 18.0173 14.0359 17.3767C14.0359 16.736 14.5552 16.2167 15.1959 16.2167C15.8365 16.2167 16.3558 16.736 16.3558 17.3767C16.3559 18.0173 15.8365 18.5367 15.1959 18.5367Z" fill="#111111"/>
<path d="M19.9054 3.10881C19.8088 3.00326 19.6766 2.93718 19.5342 2.92319L4.43117 2.7144L4.01358 1.43839C3.71939 0.585402 2.92062 0.00954726 2.01838 0H0.463997C0.207731 0 0 0.207731 0 0.463997C0 0.720263 0.207731 0.927994 0.463997 0.927994H2.01838C2.52288 0.93914 2.96711 1.26308 3.13199 1.74L6.07837 10.6255L5.84639 11.1591C5.58764 11.8263 5.66535 12.5773 6.05519 13.1775C6.44129 13.7669 7.09086 14.1307 7.79519 14.1519H16.8199C17.0762 14.1519 17.2839 13.9441 17.2839 13.6879C17.2839 13.4316 17.0762 13.2239 16.8199 13.2239H7.79514C7.3974 13.2139 7.03127 13.0047 6.82074 12.6671C6.61257 12.3336 6.56981 11.9228 6.70475 11.5535L6.89037 11.1359L16.6575 10.1151C17.7303 9.99691 18.6129 9.21661 18.8615 8.16628L19.9751 3.50313C20.0253 3.36885 19.9986 3.21783 19.9054 3.10881ZM17.9567 7.95753C17.806 8.63365 17.232 9.13238 16.5415 9.18713L6.89037 10.1847L4.73278 3.64239L18.9542 3.85119L17.9567 7.95753Z" fill="#111111"/>
</g>
<defs>
<clipPath id="clip0">
<rect width="20" height="20" fill="white"/>
</clipPath>
</defs>
</svg>
